<svg width="28" height="36" viewBox="0 0 28 36" fill="none" xmlns="http://www.w3.org/2000/svg"><path d="M18.02 16.343a.74.74 0 00-.047-1.03.706.706 0 00-1.011.046l-4.037 4.509-1.894-2.047a.706.706 0 00-1.012-.03.74.74 0 00-.03 1.032l2.424 2.618a.71.71 0 001.05-.008l4.556-5.09z" fill="#FEC80B"/><path fill-rule="evenodd" clip-rule="evenodd" d="M14 25.43c3.998 0 7.238-3.303 7.238-7.378s-3.24-7.379-7.238-7.379-7.238 3.304-7.238 7.379c0 4.075 3.24 7.378 7.238 7.378zm0-1.46c3.207 0 5.807-2.65 5.807-5.918 0-3.27-2.6-5.92-5.807-5.92-3.207 0-5.807 2.65-5.807 5.92 0 3.268 2.6 5.918 5.807 5.918z" fill="#FEC80B"/><path fill-rule="evenodd" clip-rule="evenodd" d="M14 0l13.5 8.256v11.912c-.09 2.084-.647 5.372-2.579 8.477-1.944 3.127-5.256 6.024-10.76 7.318l-.156.037-.157-.035c-4.909-1.088-8.252-3.95-10.359-7.076C1.396 25.783.5 22.383.5 20.137V8.257L14 0zM1.932 9.083v11.054c0 1.923.792 5.038 2.738 7.926 1.91 2.835 4.911 5.418 9.326 6.44 5.036-1.224 7.988-3.86 9.716-6.639 1.754-2.82 2.273-5.83 2.356-7.744V9.083L14 1.702 1.932 9.082z" fill="#FEC80B"/></svg>