<svg width="36" height="36" viewBox="0 0 36 36" fill="none" xmlns="http://www.w3.org/2000/svg"><g clip-path="url(#clip0_1859_3139)"><path fill-rule="evenodd" clip-rule="evenodd" d="M35.984 7.247a7.173 7.173 0 01-8.601 7.002l-3.145 3.144 1.375 1.375a.6.6 0 010 .848l-.3.3v.001a.672.672 0 10.952.95l.3-.3a.6.6 0 01.848 0l7.154 7.154.03.032a4.84 4.84 0 11-6.876 6.814l-7.154-7.154a.6.6 0 010-.848l.3-.3.001-.001a.672.672 0 00-.952-.95l-.3.3a.6.6 0 01-.848 0l-1.376-1.376-3.144 3.145c.096.462.144.933.146 1.405a7.197 7.197 0 11-7.197-7.197c.472.002.943.05 1.405.146L21.737 8.603a7.155 7.155 0 01.074-3.188A7.175 7.175 0 0130.526.22a.6.6 0 01.281 1.007l-3.733 3.734.988 2.96 2.962.988 3.733-3.73a.6.6 0 011.006.28 7.17 7.17 0 01.22 1.787zM29.87 34.553a3.646 3.646 0 002.559 0 3.637 3.637 0 002.125-4.684l-4.684 4.684zm-5.287-12.718a1.872 1.872 0 01-.232-2.637l-.96-.957-5.155 5.147.96.96a1.872 1.872 0 012.639 2.635l6.735 6.736c.074.073.15.141.23.207l5.127-5.127a3.733 3.733 0 00-.207-.23l-6.73-6.736a1.872 1.872 0 01-2.407.002zM13.166 26.77l13.605-13.602h-.003a.6.6 0 01.57-.158 5.967 5.967 0 007.436-6.151l-3.163 3.163a.6.6 0 01-.614.144l-3.597-1.2a.6.6 0 01-.38-.379l-1.2-3.599a.6.6 0 01.146-.613l3.163-3.165a5.969 5.969 0 00-6.152 7.437.6.6 0 01-.157.57L9.216 22.819a.605.605 0 01-.57.158 6.038 6.038 0 104.361 4.361.6.6 0 01.16-.57zM.08 3.299l2.399 4.199a.6.6 0 00.375.284l2.238.56 7.677 7.676.848-.848L5.82 7.373a.598.598 0 00-.278-.157l-2.151-.54L1.347 3.1 3.1 1.349l3.578 2.044.54 2.15c.026.106.08.203.157.28l7.797 7.796.848-.848-7.677-7.677-.56-2.237a.6.6 0 00-.284-.375L3.3.083a.6.6 0 00-.72.097L.181 2.579a.6.6 0 00-.102.72zM9.51 25.48a.6.6 0 00-.514-.29H5.397a.6.6 0 00-.514.29l-1.8 3a.6.6 0 000 .617l1.8 2.998a.6.6 0 00.514.291h3.598a.6.6 0 00.514-.29l1.8-3a.6.6 0 000-.617l-1.8-2.998zm-.853 5.707h-2.92l-1.44-2.4 1.44-2.398h2.92l1.44 2.399-1.44 2.399z" fill="#FEC80B"/></g><defs><clipPath id="clip0_1859_3139"><path fill="#fff" d="M0 0h36v36H0z"/></clipPath></defs></svg>