<svg width="36" height="36" viewBox="0 0 36 36" fill="none" xmlns="http://www.w3.org/2000/svg"><g clip-path="url(#clip0_1859_3232)" fill="#FEC80B"><path d="M27.6 22.327c1.985 0 3.6 1.552 3.6 3.461 0 1.91-1.615 3.462-3.6 3.462-1.986 0-3.6-1.552-3.6-3.462 0-1.909 1.615-3.461 3.6-3.461zm0 5.77c1.323 0 2.4-1.036 2.4-2.309 0-1.272-1.076-2.307-2.4-2.307-1.324 0-2.4 1.035-2.4 2.307 0 1.273 1.076 2.308 2.4 2.308zm-20.4-5.77c1.985 0 3.6 1.552 3.6 3.461 0 1.91-1.615 3.462-3.6 3.462-1.986 0-3.6-1.552-3.6-3.462 0-1.909 1.614-3.461 3.6-3.461zm0 5.77c1.323 0 2.4-1.036 2.4-2.309 0-1.272-1.077-2.307-2.4-2.307-1.324 0-2.4 1.035-2.4 2.307 0 1.273 1.076 2.308 2.4 2.308z"/><path d="M.095 19.13l5.4-8.077c.11-.165.3-.265.505-.265h6.6c.332 0 .6.259.6.577v14.423c0 .32-.268.577-.6.577h-2.4v-1.154H12V11.942H6.328L1.2 19.612v5.6h3v1.153H.6a.588.588 0 01-.6-.576v-6.347c0-.11.033-.219.095-.312z"/><path d="M9.6 18.288V14.25H4.8v-1.154h5.4c.332 0 .6.259.6.577v5.192a.588.588 0 01-.6.577h-9v-1.154h8.4zm3-11.538h22.8c.33 0 .6.258.6.577v18.461a.589.589 0 01-.6.577h-4.8v-1.153h4.2V7.904H13.2v17.308h11.4v1.153h-12a.589.589 0 01-.6-.576V7.326c0-.319.268-.577.6-.577zM.6 22.904H3v1.154H.6v-1.154z"/><path d="M27 25.212h1.2v1.153H27v-1.153zm-20.4 0h1.2v1.153H6.6v-1.153z"/></g><defs><clipPath id="clip0_1859_3232"><path fill="#fff" d="M0 0h36v36H0z"/></clipPath></defs></svg>