<svg width="24" height="24" viewBox="0 0 24 24" fill="none" xmlns="http://www.w3.org/2000/svg"><path fill-rule="evenodd" clip-rule="evenodd" d="M1 1.3a.7.7 0 000 1.4h3.394l.874 4.403a.695.695 0 00.014.068l1.658 8.354a2.71 2.71 0 00.948 1.576c.489.397 1.1.609 1.73.598h8.424a.5.5 0 00.917 0h.464c.63.01 1.241-.201 1.73-.598.49-.398.825-.956.947-1.576l.001-.005.393-2.074a5.56 5.56 0 01-1.521.51l-.246 1.298v.002c-.06.3-.222.568-.456.758-.235.19-.528.291-.828.285H9.598c-.3.006-.593-.094-.828-.285a1.303 1.303 0 01-.456-.76L6.814 7.7h7.605c.066-.49.194-.96.377-1.4h-8.26l-.88-4.437a.7.7 0 00-.687-.563H1zM11.94 21a2 2 0 11-4 0 2 2 0 014 0zm8.932 0a2 2 0 11-4 0 2 2 0 014 0z" fill="#000"/><path d="M20.694 4.82h-1.45v2.9h-2.9v1.45h2.9v2.9h1.45v-2.9h2.9V7.72h-2.9v-2.9z" fill="#000"/></svg>