<svg width="14" height="18" viewBox="0 0 14 18" fill="none" xmlns="http://www.w3.org/2000/svg"><path d="M6.403 15.127L.497 10.02a.662.662 0 010-1.032.94.94 0 011.193 0l4.466 3.862V1.48c0-.403.378-.73.844-.73.466 0 .844.327.844.73v11.37l4.466-3.862a.94.94 0 011.193 0c.33.285.33.747 0 1.032l-5.906 5.107a.81.81 0 01-.092.068l-.037.023-.027.014-.01.005-.01.005c-.007.004-.015.009-.023.012l-.03.012c-.002.002-.005.003-.009.004l-.009.004c-.009.004-.018.008-.027.01l-.027.01c-.004 0-.007.002-.011.003l-.04.012a.641.641 0 01-.028.006l-.01.003-.01.002a.538.538 0 01-.032.006l-.034.005-.01.001-.013.002a.985.985 0 01-.228-.002l-.011-.001-.034-.005a.537.537 0 01-.031-.006l-.01-.002a.393.393 0 00-.011-.003l-.028-.006a.6.6 0 01-.05-.015l-.028-.01c-.01-.002-.018-.006-.027-.01a.334.334 0 00-.01-.004l-.038-.016a.513.513 0 01-.024-.012l-.01-.005-.01-.005a.484.484 0 01-.026-.014l-.028-.018-.009-.005a.497.497 0 00-.01-.007l-.02-.013a.836.836 0 01-.062-.048zm-5.309 1.505h11.812c.466 0 .844.306.844.684 0 .378-.378.684-.844.684H1.094c-.466 0-.844-.306-.844-.684 0-.378.378-.684.844-.684z" fill="#A2A2A2"/></svg>