<svg width="18" height="23" viewBox="0 0 18 23" fill="none" xmlns="http://www.w3.org/2000/svg"><path d="M8.204 19.17L.33 12.36c-.439-.38-.439-.996 0-1.375.44-.38 1.152-.38 1.591 0l5.955 5.148V.973C7.875.435 8.379 0 9 0s1.125.435 1.125.973v15.16l5.954-5.148c.44-.38 1.152-.38 1.591 0 .44.38.44.995 0 1.375l-7.874 6.81a1.132 1.132 0 01-.11.08l-.013.01-.048.03a.814.814 0 01-.037.02l-.012.006a.796.796 0 00-.014.007l-.032.016-.038.016-.013.005a.625.625 0 00-.048.02.9.9 0 01-.037.012.033.033 0 00-.014.004l-.053.016-.037.008-.014.003-.014.003-.042.01a.842.842 0 01-.045.005l-.015.002a.89.89 0 00-.049.006 1.307 1.307 0 01-.254-.004l-.017-.002-.015-.002a.84.84 0 01-.045-.006l-.042-.009-.014-.003-.014-.003a.67.67 0 01-.037-.008l-.04-.012a21.666 21.666 0 00-.013-.004l-.013-.004a.827.827 0 01-.086-.032c-.017-.007-.035-.013-.051-.021a.623.623 0 01-.033-.016l-.013-.007-.012-.007a.82.82 0 01-.037-.019l-.036-.023-.012-.008-.014-.009a1.13 1.13 0 01-.108-.081zm-7.079 2.006h15.75c.621 0 1.125.409 1.125.912 0 .504-.504.912-1.125.912H1.125C.504 23 0 22.592 0 22.088s.504-.912 1.125-.912z" fill="#000"/></svg>