<svg width="64" height="64" viewBox="0 0 64 64" fill="none" xmlns="http://www.w3.org/2000/svg"><g clip-path="url(#clip0_395_15904)" fill="#000"><path d="M31.999 34.666A6.676 6.676 0 0125.332 28a6.676 6.676 0 016.667-6.667A6.676 6.676 0 0138.665 28 6.676 6.676 0 0132 34.666zm0-10.666c-2.206 0-4 1.794-4 4 0 2.205 1.794 4 4 4 2.205 0 4-1.795 4-4 0-2.206-1.795-4-4-4z"/><path d="M34.067 45.334h-4.133c-1.36 0-2.485-1.035-2.613-2.408l-.33-3.395a12.29 12.29 0 01-2.212-1.32l-2.989 1.39a2.595 2.595 0 01-3.381-1.11l-2.064-3.68a2.693 2.693 0 01.736-3.475l2.666-1.973A11.32 11.32 0 0119.66 28c0-.482.038-.946.088-1.362l-2.666-1.974a2.697 2.697 0 01-.739-3.474l2.067-3.683c.677-1.208 2.13-1.688 3.381-1.107l2.99 1.39a12.196 12.196 0 012.21-1.32l.33-3.398a2.627 2.627 0 012.614-2.405h4.133a2.628 2.628 0 012.614 2.408l.33 3.395c.776.357 1.515.797 2.211 1.32l2.99-1.39a2.6 2.6 0 013.38 1.11l2.065 3.68a2.693 2.693 0 01-.736 3.474l-2.667 1.974c.05.416.088.88.088 1.362 0 .483-.037.947-.088 1.363l2.667 1.973a2.689 2.689 0 01.736 3.472l-2.067 3.683a2.6 2.6 0 01-3.379 1.107l-2.989-1.39a12.2 12.2 0 01-2.21 1.32l-.331 3.398a2.628 2.628 0 01-2.614 2.408zM24.97 35.32c.314 0 .624.112.87.323a9.513 9.513 0 002.868 1.72c.478.179.808.61.86 1.117l.407 4.19 4.093-.003.368-4.187c.051-.506.382-.941.86-1.117a9.567 9.567 0 002.868-1.72 1.338 1.338 0 011.432-.2l3.74 1.739 1.996-3.675-3.306-2.475a1.336 1.336 0 01-.523-1.293c.096-.565.173-1.141.173-1.736s-.077-1.17-.173-1.736a1.329 1.329 0 01.523-1.293l3.31-2.454-2.07-3.709-3.67 1.747a1.337 1.337 0 01-1.434-.2 9.556 9.556 0 00-2.87-1.72 1.331 1.331 0 01-.858-1.118l-.406-4.189-4.093.003-.368 4.186c-.05.507-.381.942-.859 1.118a9.566 9.566 0 00-2.869 1.72 1.339 1.339 0 01-1.432.2l-3.739-1.739-1.997 3.675 3.307 2.474c.402.299.605.798.522 1.294A10.081 10.081 0 0022.326 28c0 .598.077 1.171.173 1.736a1.33 1.33 0 01-.522 1.294l-3.31 2.45 2.07 3.71 3.67-1.747c.178-.083.372-.123.562-.123zM56 64H8c-4.41 0-8-3.59-8-8s3.59-8 8-8h48c4.41 0 8 3.59 8 8s-3.59 8-8 8zM8 50.667A5.339 5.339 0 002.667 56 5.339 5.339 0 008 61.333h48A5.339 5.339 0 0061.333 56 5.339 5.339 0 0056 50.667H8z"/><path d="M7.999 58.666A2.671 2.671 0 015.332 56a2.671 2.671 0 012.667-2.667A2.671 2.671 0 0110.665 56 2.671 2.671 0 018 58.666zm0-2.669c0 .003 0 .003 0 0L9.332 56l-1.333-.003zm16 2.669A2.671 2.671 0 0121.332 56a2.671 2.671 0 012.667-2.667A2.671 2.671 0 0126.665 56 2.671 2.671 0 0124 58.666zm0-2.669c0 .003 0 .003 0 0l1.333.003-1.333-.003zm16 2.669A2.671 2.671 0 0137.332 56a2.671 2.671 0 012.667-2.667A2.671 2.671 0 0142.665 56 2.671 2.671 0 0140 58.666zm0-2.669c0 .003 0 .003 0 0l1.333.003-1.333-.003zm16 2.669A2.671 2.671 0 0153.332 56a2.671 2.671 0 012.667-2.667A2.671 2.671 0 0158.665 56 2.671 2.671 0 0156 58.666zm0-2.669c0 .003 0 .003 0 0l1.333.003-1.333-.003z"/></g><defs><clipPath id="clip0_395_15904"><path fill="#fff" d="M0 0h64v64H0z"/></clipPath></defs></svg>