<svg width="30" height="28" viewBox="0 0 30 28" fill="none" xmlns="http://www.w3.org/2000/svg"><path fill-rule="evenodd" clip-rule="evenodd" d="M.55 1.5a.7.7 0 01.7-.7h4.96a.7.7 0 01.687.563l1.13 5.687H28.75a.7.7 0 01.688.83l-1.984 10.487-.001.005a3.203 3.203 0 01-1.123 1.869c-.58.47-1.305.721-2.05.708H12.02a3.167 3.167 0 01-2.05-.708 3.203 3.203 0 01-1.124-1.869L6.773 7.924a.695.695 0 01-.015-.075L5.636 2.2H1.251a.7.7 0 01-.7-.7zm7.754 6.95l1.916 9.65v.002c.082.415.307.787.632 1.052.326.264.732.404 1.148.395h12.3c.416.009.823-.131 1.148-.395.325-.264.55-.635.632-1.05v-.002l1.826-9.652H8.304zm10.697 8.05a.5.5 0 11-1 0 .5.5 0 011 0zm-6.577 11.25a2.5 2.5 0 100-5 2.5 2.5 0 000 5zm11.166 0a2.5 2.5 0 100-5 2.5 2.5 0 000 5z" fill="#000"/></svg>