<svg width="140" height="151" viewBox="0 0 140 151" fill="none" xmlns="http://www.w3.org/2000/svg"><path fill-rule="evenodd" clip-rule="evenodd" d="M0 129v12c0 5.523 4.477 10 10 10h107c5.523 0 10-4.477 10-10v-12H0z" fill="#D7B43C"/><path d="M13 41.842V151h127V41.842L77 .654V0l-.5.327L76 0v.654L13 41.842z" fill="#FEC80B"/><path d="M51.831 55.62V96h-7.56V63.36l-9 5.46-3.36-5.16 13.14-8.04h6.78zm37.212 25.26v5.88h-4.86V96h-7.5v-9.24h-17.16v-5.28l11.76-26.64 6.54 2.46-10.32 23.58h9.24l.78-10.14h6.66v10.14h4.86zm20.268-16.98v9.18h8.94v6.06h-8.94v9.18h-6.6v-9.18h-8.88v-6.06h8.88V63.9h6.6zm-66.726 49.614V123h-1.656v-8.136h-2.934l-.27 3.168c-.108 1.284-.246 2.244-.414 2.88-.156.636-.408 1.128-.756 1.476-.336.336-.852.612-1.548.828l-.414-1.314c.408-.144.696-.33.864-.558.168-.228.294-.576.378-1.044.084-.468.174-1.284.27-2.448l.378-4.338h6.102zm10.587 4.464c0 .276-.012.558-.036.846h-6.048c.072 1.044.336 1.812.792 2.304.456.492 1.044.738 1.764.738.456 0 .876-.066 1.26-.198a5.081 5.081 0 001.206-.63l.72.99c-1.008.792-2.112 1.188-3.312 1.188-1.32 0-2.352-.432-3.096-1.296-.732-.864-1.098-2.052-1.098-3.564 0-.984.156-1.854.468-2.61.324-.768.78-1.368 1.368-1.8.6-.432 1.302-.648 2.106-.648 1.26 0 2.226.414 2.898 1.242.672.828 1.008 1.974 1.008 3.438zm-1.638-.486c0-.936-.186-1.65-.558-2.142-.372-.492-.93-.738-1.674-.738-1.356 0-2.094.996-2.214 2.988h4.446v-.108zm10.233-3.978l-.198 1.35h-3.042V123h-1.656v-8.136H53.74v-1.35h8.028zm10.041-.216c1.332 0 2.364.444 3.096 1.332.744.888 1.116 2.094 1.116 3.618 0 .984-.168 1.854-.504 2.61-.336.744-.822 1.326-1.458 1.746-.636.408-1.392.612-2.268.612-1.332 0-2.37-.444-3.114-1.332-.744-.888-1.116-2.094-1.116-3.618 0-.984.168-1.848.504-2.592.336-.756.822-1.338 1.458-1.746.636-.42 1.398-.63 2.286-.63zm0 1.332c-1.644 0-2.466 1.212-2.466 3.636 0 2.412.816 3.618 2.448 3.618 1.632 0 2.448-1.212 2.448-3.636 0-2.412-.81-3.618-2.43-3.618zM84.3 123v-8.136h-3.888V123h-1.656v-9.486h7.2V123H84.3zm7.81-6.426c1.415 0 2.441.276 3.077.828.636.552.954 1.338.954 2.358 0 1.068-.36 1.878-1.08 2.43-.708.54-1.59.81-2.646.81h-3.042v-9.486h1.656v3.06h1.08zm5.4-3.06h1.655V123H97.51v-9.486zm-5.239 8.19c.672 0 1.188-.15 1.548-.45.372-.3.558-.798.558-1.494 0-.66-.174-1.146-.522-1.458-.336-.312-.924-.468-1.764-.468H91.03v3.87h1.242zm16.729-8.19l-.198 1.35h-3.042V123h-1.656v-8.136h-3.132v-1.35H109zm7.382 7.272c0 .384.066.672.198.864.132.18.33.318.594.414l-.378 1.152c-.492-.06-.888-.198-1.188-.414-.3-.216-.522-.552-.666-1.008-.636.948-1.578 1.422-2.826 1.422-.936 0-1.674-.264-2.214-.792s-.81-1.218-.81-2.07c0-1.008.36-1.782 1.08-2.322.732-.54 1.764-.81 3.096-.81h1.458v-.702c0-.672-.162-1.152-.486-1.44-.324-.288-.822-.432-1.494-.432-.696 0-1.548.168-2.556.504l-.414-1.206c1.176-.432 2.268-.648 3.276-.648 1.116 0 1.95.276 2.502.828.552.54.828 1.314.828 2.322v4.338zm-3.888 1.188c.948 0 1.692-.492 2.232-1.476v-2.178h-1.242c-1.752 0-2.628.648-2.628 1.944 0 .564.138.99.414 1.278.276.288.684.432 1.224.432z" fill="#000"/></svg>