<svg width="17" height="18" viewBox="0 0 17 18" fill="none" xmlns="http://www.w3.org/2000/svg"><path d="M6.805 7.547c.343 0 .621.275.621.614v5.032c0 .34-.278.614-.621.614a.618.618 0 01-.622-.614V8.16c0-.34.279-.614.622-.614zm4.012.614a.618.618 0 00-.622-.614.618.618 0 00-.621.614v5.032c0 .34.278.614.621.614a.618.618 0 00.622-.614V8.16z" fill="#A2A2A2"/><path fill-rule="evenodd" clip-rule="evenodd" d="M4.488 3.354V2.292c0-.608.244-1.19.679-1.62A2.33 2.33 0 016.805 0h3.39a2.33 2.33 0 011.638.671 2.28 2.28 0 01.679 1.62v1.063h3.616c.344 0 .622.275.622.615 0 .34-.278.615-.622.615h-1.073v11.124a2.28 2.28 0 01-.679 1.62 2.33 2.33 0 01-1.638.672H4.262a2.33 2.33 0 01-1.638-.671 2.28 2.28 0 01-.679-1.62V4.583H.872a.618.618 0 01-.622-.615c0-.34.278-.615.622-.615h3.616zm1.558-1.813c.201-.2.474-.311.759-.311h3.39a1.065 1.065 0 011.074 1.062v1.062H5.73V2.292c0-.282.113-.552.315-.751zM3.188 4.584v11.124c0 .282.113.552.315.751.201.2.474.311.759.311h8.476a1.065 1.065 0 001.074-1.062V4.584H3.188z" fill="#A2A2A2"/></svg>