<svg width="24" height="24" viewBox="0 0 24 24" fill="none" xmlns="http://www.w3.org/2000/svg"><g clip-path="url(#clip0_603_24601)" fill="#A2A2A2"><path fill-rule="evenodd" clip-rule="evenodd" d="M20.995 8.502a5.197 5.197 0 01-.356 2.133 5.001 5.001 0 01-1.027 1.615l-.913.959-5.733 6.026L12 20.25l-.966-1.015L5.3 13.209l-.912-.96A5.11 5.11 0 013 8.73c0-1.32.5-2.587 1.388-3.52a4.624 4.624 0 013.35-1.459 4.62 4.62 0 013.349 1.459l.913.959.913-.96a4.724 4.724 0 011.537-1.08 4.538 4.538 0 011.803-.378 3.38 3.38 0 00-1.095 1.602l-.15.06a3.33 3.33 0 00-1.081.762l-.913.96a1.4 1.4 0 01-2.028 0l-.913-.96A3.224 3.224 0 007.737 5.15c-.862 0-1.703.36-2.335 1.024A3.71 3.71 0 004.4 8.729a3.71 3.71 0 001.002 2.556l.913.959L12 18.219l5.685-5.975.913-.96c.314-.329.566-.724.739-1.163.072-.184.13-.373.173-.567.587-.21 1.1-.577 1.485-1.052z"/><path d="M18.995 3.731h-1.088v2.175h-2.175v1.088h2.175v2.175h1.088V6.994h2.175V5.906h-2.175V3.731z"/></g><defs><clipPath id="clip0_603_24601"><path fill="#fff" transform="translate(3 3)" d="M0 0h18v18H0z"/></clipPath></defs></svg>