<svg width="30" height="28" viewBox="0 0 30 28" fill="none" xmlns="http://www.w3.org/2000/svg"><path d="M17.028 3.164h0a7.18 7.18 0 012.334-1.64A6.863 6.863 0 0122.104.95c.94 0 1.872.195 2.742.574a7.18 7.18 0 012.334 1.64h0a7.637 7.637 0 011.568 2.466 7.97 7.97 0 01.552 2.919 7.966 7.966 0 01-.552 2.919 7.637 7.637 0 01-1.568 2.466h0l-1.522 1.599L15 26.735 4.34 15.533l-1.52-1.6C1.466 12.512.7 10.576.7 8.55s.766-3.963 2.12-5.385C4.172 1.742 5.999.95 7.895.95c1.897 0 3.724.791 5.076 2.213l1.521 1.599a.7.7 0 001.015 0l1.521-1.6z" stroke="#000" stroke-width="1.4" stroke-linecap="round" stroke-linejoin="round"/></svg>