<svg width="32" height="32" viewBox="0 0 32 32" fill="none" xmlns="http://www.w3.org/2000/svg"><g opacity=".4"><rect x=".5" y=".5" width="31" height="31" rx="3.5" stroke="#fff"/><path d="M22.75 15.125v-2.25h-1.125v2.25h-2.25v1.125h2.25v2.25h1.125v-2.25H25v-1.125h-2.25zM12.5 15.4v2.2h3.112a3.306 3.306 0 01-3.112 2.2c-1.82 0-3.3-1.48-3.3-3.3 0-1.82 1.48-3.3 3.3-3.3.789 0 1.548.283 2.137.796l1.446-1.658A5.45 5.45 0 0012.5 11 5.506 5.506 0 007 16.5c0 3.033 2.467 5.5 5.5 5.5s5.5-2.467 5.5-5.5v-1.1h-5.5z" fill="#fff"/></g></svg>