<svg width="32" height="32" viewBox="0 0 32 32" fill="none" xmlns="http://www.w3.org/2000/svg"><g opacity=".4"><rect x=".5" y=".5" width="31" height="31" rx="3.5" stroke="#fff"/><path d="M20.294 10.904a.8.8 0 100 1.6h.008a.8.8 0 100-1.6h-.008z" fill="#fff"/><path fill-rule="evenodd" clip-rule="evenodd" d="M16.608 12.084a3.924 3.924 0 10-1.152 7.764 3.924 3.924 0 001.152-7.764zm-1.647 1.819a2.325 2.325 0 112.142 4.127 2.325 2.325 0 01-2.142-4.127z" fill="#fff"/><path fill-rule="evenodd" clip-rule="evenodd" d="M7.387 12.094a4.706 4.706 0 014.705-4.705h7.812a4.706 4.706 0 014.706 4.705v7.812c0 .949-.281 1.832-.765 2.572a.426.426 0 01-.237.33 4.698 4.698 0 01-3.704 1.804h-7.812a4.706 4.706 0 01-4.705-4.706v-7.812zm4.705-3.105a3.106 3.106 0 00-3.105 3.105v7.812a3.106 3.106 0 003.105 3.106h7.812a3.106 3.106 0 003.106-3.106v-7.812a3.106 3.106 0 00-3.106-3.105h-7.812z" fill="#fff"/></g></svg>