<svg width="159" height="44" viewBox="0 0 159 44" fill="none" xmlns="http://www.w3.org/2000/svg"><path d="M55.254 25.344v6.053h-4.3V13.558h7.117c1.364 0 2.57.253 3.615.76 1.053.498 1.866 1.213 2.438 2.144.58.923.87 1.972.87 3.148 0 1.74-.625 3.133-1.875 4.178-1.241 1.038-2.948 1.556-5.121 1.556h-2.744zm0-3.32h2.818c.833 0 1.466-.208 1.898-.625.442-.416.662-1.004.662-1.764 0-.833-.224-1.499-.674-1.997-.449-.498-1.061-.752-1.837-.76h-2.867v5.146zm18.589-.723v.013l2.953-7.756h4.533L75.326 27.71c-.646 1.43-1.373 2.438-2.181 3.026-.8.58-1.74.887-2.818.92h-.87l-.662-.025-.073-3.333c.098.033.384.05.858.05.653 0 1.143-.111 1.47-.332.335-.228.604-.665.808-1.31l.209-.589-6.445-12.558h4.57l3.651 7.743zm22.719 4.056c-.058 1.241-.392 2.34-1.005 3.295-.613.948-1.474 1.683-2.585 2.206-1.103.523-2.365.784-3.786.784-2.344 0-4.19-.764-5.538-2.291-1.348-1.528-2.021-3.684-2.021-6.47V22c0-1.748.302-3.276.906-4.583.613-1.315 1.49-2.327 2.634-3.038 1.144-.719 2.467-1.078 3.97-1.078 2.165 0 3.904.572 5.22 1.715 1.314 1.135 2.062 2.704 2.241 4.705H92.31c-.032-1.087-.306-1.867-.82-2.34-.515-.474-1.3-.71-2.353-.71-1.07 0-1.854.4-2.352 1.2-.499.8-.76 2.079-.784 3.835v1.262c0 1.903.236 3.263.71 4.08.482.816 1.307 1.225 2.475 1.225.988 0 1.744-.233 2.267-.699.522-.465.8-1.205.833-2.217h4.276zm15.293-8.479h-5.354v14.519h-4.3V16.878h-5.256v-3.32h14.91v3.32zm5.75 8.466v6.053h-4.3V13.558h7.118c1.364 0 2.569.253 3.614.76 1.054.498 1.867 1.213 2.438 2.144.58.923.87 1.972.87 3.148 0 1.74-.624 3.133-1.874 4.178-1.242 1.038-2.949 1.556-5.121 1.556h-2.745zm0-3.32h2.818c.833 0 1.466-.208 1.899-.625.441-.416.662-1.004.662-1.764 0-.833-.225-1.499-.674-1.997-.449-.498-1.062-.752-1.838-.76h-2.867v5.146zm19.619 6.04h-5.893l-1.029 3.333h-4.595l6.543-17.839h4.043l6.591 17.839h-4.619l-1.041-3.333zm-4.864-3.32h3.835l-1.924-6.187-1.911 6.187zm17.769-.404h-2.034v7.057h-4.301V13.558h4.301v6.898h1.654l3.43-6.898h5.207l-4.9 8.233 5.513 9.606h-5.085l-3.785-7.057z" fill="#000"/><path fill-rule="evenodd" clip-rule="evenodd" d="M43.264 23.776a2.512 2.512 0 000-3.552L23.776.736a2.512 2.512 0 00-3.552 0L.736 20.224a2.512 2.512 0 000 3.552l19.488 19.488a2.512 2.512 0 003.552 0l19.488-19.488zm-8.373 0a2.512 2.512 0 000-3.552L23.776 9.109a2.512 2.512 0 00-3.552 0L9.109 20.224a2.512 2.512 0 000 3.552l11.115 11.115a2.512 2.512 0 003.552 0l11.115-11.115z" fill="#FEC80B"/></svg>