<svg width="25" height="20" viewBox="0 0 25 20" fill="none" xmlns="http://www.w3.org/2000/svg"><path d="M3.53 1.813a1.47 1.47 0 00-1.41 1.084l.517.361H.5A3.036 3.036 0 013.53.243h17.944c1.663 0 3.02 1.376 3.026 3.038l-1.066-.023-1.099.02.547-.381a1.467 1.467 0 00-1.409-1.084H3.53z" fill="#000"/><path fill-rule="evenodd" clip-rule="evenodd" d="M22.335 3.279l1.099-.02 1.066.022v13.448a3.035 3.035 0 01-3.028 3.028H3.528A3.035 3.035 0 01.5 16.73V3.26l2.138.001 9.862 6.903 9.835-6.884zm.595 13.45V4.78l-9.98 6.986a.785.785 0 01-.9 0L2.07 4.779v11.95c0 .8.658 1.458 1.458 1.458h17.944c.8 0 1.458-.658 1.458-1.458z" fill="#000"/></svg>