<svg width="24" height="24" viewBox="0 0 24 24" fill="none" xmlns="http://www.w3.org/2000/svg"><rect width="24" height="24" rx="4" fill="#F7931E"/><path d="M24 20.488A3.503 3.503 0 0120.506 24H3.494A3.503 3.503 0 010 20.488V3.512A3.503 3.503 0 013.494 0h17.012A3.503 3.503 0 0124 3.512v16.976z" fill="#F7931E"/><path d="M23.877 20.4a3.467 3.467 0 01-3.459 3.477H3.581A3.467 3.467 0 01.123 20.4V3.599A3.467 3.467 0 013.581.123h16.837a3.467 3.467 0 013.459 3.476v16.802z" fill="#F7931E"/><path d="M11.986 3.587c-2.378 0-4.306 1.938-4.306 4.329 0 2.39 1.928 4.329 4.306 4.329 2.379 0 4.307-1.938 4.307-4.33 0-2.39-1.928-4.328-4.306-4.328zm0 6.118c-.983 0-1.78-.8-1.78-1.79 0-.987.797-1.789 1.78-1.789.984 0 1.78.802 1.78 1.79s-.796 1.79-1.78 1.79zm1.522 5.985c1.724-.353 2.757-1.174 2.812-1.218a1.181 1.181 0 00.18-1.654 1.167 1.167 0 00-1.645-.182c-.011.008-1.113.858-2.926.86-1.813-.002-2.939-.852-2.95-.86a1.167 1.167 0 00-1.645.182 1.181 1.181 0 00.18 1.654c.056.045 1.132.887 2.904 1.232l-2.47 2.595a1.181 1.181 0 00.03 1.664 1.164 1.164 0 001.656-.03l2.295-2.457 2.527 2.473a1.167 1.167 0 001.656-.002 1.181 1.181 0 00-.002-1.664l-2.602-2.593z" fill="#fff"/></svg>