<svg width="24" height="24" viewBox="0 0 24 24" fill="none" xmlns="http://www.w3.org/2000/svg"><path d="M24 17.969v3.613a2.405 2.405 0 01-1.641 2.291 2.418 2.418 0 01-.99.117 23.912 23.912 0 01-10.414-3.697 23.508 23.508 0 01-7.24-7.226A23.803 23.803 0 01.01 2.626 2.404 2.404 0 011.438.206 2.4 2.4 0 012.411 0h3.62a2.416 2.416 0 012.414 2.072c.153 1.156.436 2.291.844 3.384a2.404 2.404 0 01-.543 2.54l-1.532 1.53a19.288 19.288 0 007.24 7.226l1.533-1.53a2.414 2.414 0 012.546-.541c1.095.408 2.232.69 3.39.843A2.415 2.415 0 0124 17.969z" fill="#000"/></svg>