<svg width="30" height="30" viewBox="0 0 30 30" fill="none" xmlns="http://www.w3.org/2000/svg">
<path d="M7.72299 13.3544C7.72299 12.8021 8.1707 12.3544 8.72299 12.3544H12.3557V8.7224C12.3557 8.17012 12.8034 7.7224 13.3557 7.7224C13.908 7.7224 14.3557 8.17012 14.3557 8.7224V12.3544H17.989C18.5413 12.3544 18.989 12.8021 18.989 13.3544C18.989 13.9066 18.5413 14.3544 17.989 14.3544H14.3557V17.9884C14.3557 18.5407 13.908 18.9884 13.3557 18.9884C12.8034 18.9884 12.3557 18.5407 12.3557 17.9884V14.3544H8.72299C8.1707 14.3544 7.72299 13.9066 7.72299 13.3544Z" fill="white"/>
<path fill-rule="evenodd" clip-rule="evenodd" d="M22.063 23.4799C19.7248 25.4927 16.6819 26.7094 13.3547 26.7094C5.9791 26.7094 0 20.7303 0 13.3547C0 5.9791 5.9791 0 13.3547 0C20.7303 0 26.7094 5.9791 26.7094 13.3547C26.7094 16.6832 25.4917 19.7274 23.4774 22.0659L29.5033 28.0918C29.8938 28.4823 29.8938 29.1155 29.5033 29.506C29.1128 29.8965 28.4796 29.8965 28.0891 29.506L22.063 23.4799ZM2 13.3547C2 7.08367 7.08367 2 13.3547 2C19.6257 2 24.7094 7.08367 24.7094 13.3547C24.7094 16.4296 23.4871 19.219 21.5019 21.2636C21.4561 21.2961 21.4123 21.3328 21.3712 21.3739C21.3302 21.4149 21.2935 21.4586 21.2611 21.5044C19.2167 23.4881 16.4283 24.7094 13.3547 24.7094C7.08367 24.7094 2 19.6257 2 13.3547Z" fill="white"/>
</svg>
