<svg width="25" height="20" viewBox="0 0 18 10" fill="none" xmlns="http://www.w3.org/2000/svg"><path d="M2.159 2.696a3.176 3.176 0 012.265-.955h2.288c.337 0 .61-.278.61-.62A.615.615 0 006.712.5H4.424a4.386 4.386 0 00-3.128 1.318A4.54 4.54 0 000 5a4.54 4.54 0 001.296 3.182c.41.418.898.75 1.435.975a4.359 4.359 0 001.693.343h2.288c.337 0 .61-.278.61-.62a.615.615 0 00-.61-.621H4.424c-.421 0-.838-.085-1.226-.248a3.2 3.2 0 01-1.04-.707A3.287 3.287 0 011.22 5c0-.864.338-1.693.939-2.304zM11.288.5a.615.615 0 00-.61.62c0 .343.273.621.61.621h2.288a3.17 3.17 0 012.266.955c.297.302.533.662.694 1.057a3.307 3.307 0 01-.695 3.551 3.157 3.157 0 01-2.265.954h-2.288a.615.615 0 00-.61.621c0 .343.273.621.61.621h2.288a4.36 4.36 0 001.693-.343 4.42 4.42 0 001.435-.975c.411-.418.737-.914.96-1.46a4.568 4.568 0 000-3.444 4.506 4.506 0 00-.96-1.46A4.42 4.42 0 0015.27.843 4.36 4.36 0 0013.576.5h-2.288z" fill="#000"/><path d="M5.95 4.38a.616.616 0 00-.611.62c0 .343.273.62.61.62h6.102c.337 0 .61-.277.61-.62a.616.616 0 00-.61-.62H5.949z" fill="#000"/></svg>