<svg width="24" height="24" viewBox="0 0 24 24" fill="none" xmlns="http://www.w3.org/2000/svg"><rect width="24" height="24" rx="4" fill="#34AADF"/><path d="M12 24c6.627 0 12-5.373 12-12S18.627 0 12 0 0 5.373 0 12s5.373 12 12 12z" fill="#34AADF"/><path d="M4.994 11.896s6-2.463 8.08-3.33c.798-.346 3.504-1.456 3.504-1.456s1.248-.486 1.144.693c-.035.486-.312 2.185-.59 4.023-.416 2.602-.867 5.446-.867 5.446s-.069.797-.659.936c-.59.139-1.56-.485-1.734-.624-.138-.104-2.6-1.665-3.502-2.428-.243-.208-.52-.624.034-1.11a132.413 132.413 0 003.642-3.468c.416-.416.832-1.387-.902-.208-2.462 1.7-4.89 3.295-4.89 3.295s-.555.347-1.595.034c-1.04-.312-2.255-.728-2.255-.728s-.832-.52.59-1.075z" fill="#fff"/></svg>