<svg width="32" height="32" viewBox="0 0 32 32" fill="none" xmlns="http://www.w3.org/2000/svg"><g opacity=".4"><rect x=".5" y=".5" width="31" height="31" rx="3.5" stroke="#fff"/><path d="M25 8.508a8.84 8.84 0 01-2.57 1.28 3.653 3.653 0 00-1.875-1.176 3.592 3.592 0 00-2.197.134 3.68 3.68 0 00-1.726 1.396A3.803 3.803 0 0016 12.295v.836a8.569 8.569 0 01-4.147-.948 8.779 8.779 0 01-3.217-2.839s-3.272 7.524 4.091 10.868A9.377 9.377 0 017 21.884c7.364 4.18 16.364 0 16.364-9.614a3.848 3.848 0 00-.066-.694A6.49 6.49 0 0025 8.508z" fill="#fff"/></g></svg>