<svg width="18" height="18" viewBox="0 0 18 18" fill="none" xmlns="http://www.w3.org/2000/svg"><path fill-rule="evenodd" clip-rule="evenodd" d="M14.051 6.333a3.205 3.205 0 01-2.362-1.031L6.99 8.016a3.135 3.135 0 010 1.967l4.701 2.712a3.205 3.205 0 012.36-1.028c1.767 0 3.199 1.417 3.199 3.166 0 1.75-1.432 3.167-3.199 3.167s-3.199-1.418-3.199-3.167c0-.345.056-.677.159-.987l-4.7-2.711a3.206 3.206 0 01-2.362 1.032C2.182 12.167.75 10.749.75 9c0-1.749 1.432-3.167 3.199-3.167.935 0 1.777.398 2.362 1.031L11.01 4.15a3.136 3.136 0 01-.157-.983c0-1.75 1.432-3.167 3.199-3.167s3.199 1.418 3.199 3.167c0 1.749-1.432 3.166-3.199 3.166zm-1.852-3.166c0-1.013.83-1.834 1.852-1.834 1.023 0 1.852.821 1.852 1.834 0 1.012-.83 1.833-1.852 1.833a1.855 1.855 0 01-1.622-.948 1.81 1.81 0 01-.23-.885zm-6.651 4.91a1.855 1.855 0 00-1.599-.91c-1.023 0-1.852.82-1.852 1.833 0 1.012.83 1.833 1.852 1.833a1.855 1.855 0 001.623-.95 1.81 1.81 0 00-.024-1.806zm6.858 5.912a1.81 1.81 0 00-.207.844c0 1.013.83 1.834 1.852 1.834a1.843 1.843 0 001.852-1.834c0-1.012-.83-1.833-1.852-1.833-.648 0-1.218.33-1.549.828a.677.677 0 01-.096.162z" fill="#A2A2A2"/></svg>