<svg width="24" height="24" viewBox="0 0 24 24" fill="none" xmlns="http://www.w3.org/2000/svg"><rect width="24" height="24" rx="4" fill="#7B519D"/><path d="M21 0H3a3 3 0 00-3 3v18a3 3 0 003 3h18a3 3 0 003-3V3a3 3 0 00-3-3z" fill="#7B519D"/><path fill-rule="evenodd" clip-rule="evenodd" d="M19.777 16.193c-.572-.46-1.183-.873-1.784-1.295-1.2-.843-2.297-.908-3.192.447-.503.761-1.206.794-1.942.46-2.028-.92-3.595-2.336-4.512-4.398-.406-.912-.4-1.73.549-2.375.503-.34 1.01-.744.969-1.49-.053-.972-2.413-4.22-3.345-4.563a1.695 1.695 0 00-1.162 0c-2.185.734-3.09 2.531-2.224 4.66 2.586 6.348 7.137 10.768 13.402 13.466.357.153.754.215.955.27 1.426.014 3.097-1.36 3.58-2.724.464-1.312-.518-1.833-1.294-2.458zM12.752 3.63c4.58.704 6.693 2.882 7.276 7.495.054.426-.105 1.067.503 1.079.636.012.482-.62.488-1.046.054-4.345-3.735-8.372-8.134-8.52-.332.047-1.019-.23-1.062.514-.028.502.55.42.93.478z" fill="#fff"/><path fill-rule="evenodd" clip-rule="evenodd" d="M13.649 4.894c-.44-.053-1.022-.26-1.125.35-.108.642.54.577.957.67 2.828.633 3.813 1.662 4.28 4.468.067.41-.068 1.046.627.94.515-.078.33-.624.372-.942.023-2.694-2.285-5.146-5.111-5.486z" fill="#fff"/><path fill-rule="evenodd" clip-rule="evenodd" d="M13.908 7.097c-.294.007-.582.04-.69.353-.163.47.178.582.526.638 1.16.186 1.771.87 1.887 2.028.031.314.23.568.534.533.42-.05.459-.425.446-.78.02-1.3-1.449-2.803-2.703-2.772z" fill="#fff"/></svg>