<svg width="24" height="24" viewBox="0 0 24 24" fill="none" xmlns="http://www.w3.org/2000/svg"><g clip-path="url(#clip0_816_31668)"><rect width="24" height="24" rx="4" fill="#fff"/><rect width="24" height="24" rx="4" fill="url(#paint0_linear_816_31668)"/><path d="M18.359 5.701a8.552 8.552 0 00-6.088-2.523c-4.744 0-8.605 3.86-8.607 8.603 0 1.516.396 2.997 1.149 4.301l-1.221 4.459 4.562-1.197a8.603 8.603 0 004.113 1.048h.004c4.743 0 8.604-3.86 8.606-8.604A8.55 8.55 0 0018.36 5.7zM12.27 18.939h-.003a7.144 7.144 0 01-3.641-.997l-.261-.155-2.708.71.723-2.64-.17-.27a7.133 7.133 0 01-1.094-3.806c.002-3.942 3.21-7.15 7.157-7.15 1.91 0 3.706.745 5.057 2.097a7.107 7.107 0 012.093 5.06c-.001 3.942-3.21 7.15-7.153 7.15zm3.924-5.356c-.216-.108-1.273-.628-1.47-.7-.197-.071-.34-.107-.484.108-.143.215-.555.7-.68.843-.126.143-.252.161-.467.054-.215-.108-.908-.335-1.729-1.067-.64-.57-1.07-1.274-1.196-1.49-.126-.215-.014-.331.094-.438.097-.097.215-.252.322-.377.108-.126.144-.215.216-.359.071-.143.035-.269-.018-.376-.054-.108-.484-1.166-.663-1.597-.175-.419-.352-.362-.484-.369a8.628 8.628 0 00-.412-.007.79.79 0 00-.574.269c-.197.215-.753.735-.753 1.793 0 1.058.771 2.08.879 2.224.107.144 1.516 2.315 3.673 3.246.513.222.914.354 1.226.453.515.164.984.14 1.355.085.413-.061 1.272-.52 1.451-1.022.18-.502.18-.932.126-1.022-.054-.09-.197-.144-.412-.251z" fill="#fff"/></g><defs><linearGradient id="paint0_linear_816_31668" x1="12" y1="0" x2="12" y2="24" gradientUnits="userSpaceOnUse"><stop stop-color="#61FD7D"/><stop offset="1" stop-color="#2BB826"/></linearGradient><clipPath id="clip0_816_31668"><rect width="24" height="24" rx="4" fill="#fff"/></clipPath></defs></svg>