<svg width="32" height="32" viewBox="0 0 32 32" fill="none" xmlns="http://www.w3.org/2000/svg"><g opacity=".4"><rect x=".5" y=".5" width="31" height="31" rx="3.5" stroke="#fff"/><g clip-path="url(#clip0_1622_24085)"><path fill-rule="evenodd" clip-rule="evenodd" d="M24.05 10.206c.278.29.476.648.573 1.04.26 1.45.386 2.922.377 4.396a24.105 24.105 0 01-.377 4.33 2.295 2.295 0 01-1.587 1.649C21.629 22 16 22 16 22s-5.629 0-7.036-.38a2.27 2.27 0 01-1-.581 2.297 2.297 0 01-.587-1.002A24.103 24.103 0 017 15.642a24.103 24.103 0 01.377-4.363 2.294 2.294 0 011.587-1.65C10.371 9.25 16 9.25 16 9.25s5.629 0 7.036.346c.385.11.735.32 1.013.61zm-5.44 5.45l-4.312 2.452v-4.905l4.312 2.453z" fill="#fff"/></g></g><defs><clipPath id="clip0_1622_24085"><path fill="#fff" transform="translate(7 7)" d="M0 0h18v18H0z"/></clipPath></defs></svg>